{
.appVersion = "3151";
.formatVersion = 3;
DisplayStrings = (
"hambnurgfontsiv
nnnnabnnnondapqh
nnoganonnnnonnonnnonn
nonon
nnoonn
coin noc con
o
adhesion
",
hn,
"HHHHHHHHHH
HHOHH
HOHOH
HHOOHH
HHAHH
HHIHH
nnonnn
nnoonn
nonon on noooo
nnannann
nnbnnbnn bbn
nndnndoOHn dnAnOHdAH I
nndhnnnh
nninnniin
nnqnnnqqn
nnopnnnpnppn

",
c,
O
);
axes = (
{
name = Weight;
tag = wght;
}
);
date = "2023-09-24 04:03:02 +0000";
familyName = Ojuju;
fontMaster = (
{
axesValues = (
700
);
id = m01;
metricValues = (
{
over = 16;
pos = 800;
},
{
over = 16;
pos = 700;
},
{
over = 16;
pos = 500;
},
{
over = -16;
},
{
over = -16;
pos = -200;
},
{
over = -16;
}
);
name = Bold;
visible = 1;
},
{
axesValues = (
200
);
id = "60D037D9-62E9-4843-B070-F1594CB0B0D1";
metricValues = (
{
pos = 800;
},
{
pos = 700;
},
{
pos = 500;
},
{
},
{
pos = -200;
},
{
}
);
name = Extralight;
visible = 1;
}
);
glyphs = (
{
glyphname = A;
lastChange = "2023-10-25 11:38:24 +0000";
layers = (
{
layerId = m01;
shapes = (
{
closed = 1;
nodes = (
(470,304,o),
(484,46,o),
(483,0,c),
(581,0,l),
(545,232,o),
(518,470,o),
(508,702,c),
(84,700,l),
(74,468,o),
(50,232,o),
(15,0,c),
(113,0,l),
(112,46,o),
(123,304,o),
(123,362,cs),
(123,405,o),
(143,434,o),
(297,434,c),
(451,434,o),
(470,405,o),
(470,362,cs)
);
},
{
closed = 1;
nodes = (
(504,155,o),
(490,259,o),
(470,362,c),
(470,288,o),
(404,289,o),
(297,289,cs),
(190,289,o),
(123,288,o),
(123,362,c),
(103,259,o),
(91,156,o),
(108,53,c),
(113,147,o),
(139,155,o),
(298,155,cs),
(457,155,o),
(482,147,o),
(487,53,c)
);
}
);
width = 596;
},
{
layerId = "60D037D9-62E9-4843-B070-F1594CB0B0D1";
shapes = (
{
closed = 1;
nodes = (
(367,470,o),
(419,74,o),
(424,0,c),
(445,0,l),
(409,232,o),
(382,468,o),
(372,702,c),
(119,700,l),
(109,468,o),
(85,232,o),
(50,0,c),
(71,0,l),
(77,74,o),
(124,470,o),
(129,659,cs),
(130,680,o),
(137,683,o),
(246,683,c),
(356,683,o),
(361,679,o),
(362,659,cs)
);
},
{
closed = 1;
nodes = (
(394,324,o),
(390,336,o),
(386,354,c),
(388,339,o),
(371,343,o),
(247,343,cs),
(123,343,o),
(106,339,o),
(107,354,c),
(103,336,o),
(99,324,o),
(99,305,c),
(103,337,o),
(120,328,o),
(246,328,cs),
(372,328,o),
(390,337,o),
(394,305,c)
);
}
);
width = 495;
}
);
unicode = 65;
},
{
glyphname = H;
lastChange = "2023-10-25 11:37:44 +0000";
layers = (
{
layerId = m01;
shapes = (
{
closed = 1;
nodes = (
(58,467,o),
(58,233,o),
(50,0,c),
(130,0,l),
(120,233,o),
(120,467,o),
(130,700,c),
(50,700,l)
);
},
{
closed = 1;
nodes = (
(532,467,o),
(532,233,o),
(522,0,c),
(602,0,l),
(594,233,o),
(594,467,o),
(602,700,c),
(522,700,l)
);
},
{
closed = 1;
nodes = (
(544,229,o),
(548,456,o),
(528,559,c),
(528,485,o),
(501,488,o),
(325,488,cs),
(149,488,o),
(124,485,o),
(124,559,c),
(104,456,o),
(108,230,o),
(125,127,c),
(128,221,o),
(133,240,o),
(323,240,cs),
(515,240,o),
(524,221,o),
(527,127,c)
);
}
);
width = 652;
},
{
layerId = "60D037D9-62E9-4843-B070-F1594CB0B0D1";
shapes = (
{
closed = 1;
nodes = (
(73,467,o),
(73,233,o),
(70,0,c),
(87,0,l),
(84,233,o),
(84,467,o),
(87,700,c),
(70,700,l)
);
},
{
closed = 1;
nodes = (
(459,427,o),
(459,233,o),
(456,0,c),
(473,0,l),
(470,233,o),
(470,467,o),
(473,700,c),
(456,700,l)
);
},
{
closed = 1;
nodes = (
(464,388,o),
(465,421,o),
(459,431,c),
(458,411,o),
(455,412,o),
(267,413,cs),
(143,414,o),
(84,411,o),
(85,431,c),
(81,413,o),
(85,387,o),
(85,368,c),
(89,400,o),
(90,400,o),
(267,400,cs),
(454,400,o),
(453,400,o),
(458,369,c)
);
}
);
width = 543;
}
);
unicode = 72;
},
{
glyphname = I;
lastChange = "2023-10-25 11:38:08 +0000";
layers = (
{
layerId = m01;
shapes = (
{
closed = 1;
nodes = (
(60,467,o),
(60,233,o),
(50,0,c),
(145,0,l),
(135,233,o),
(135,467,o),
(145,700,c),
(50,700,l)
);
}
);
width = 195;
},
{
layerId = "60D037D9-62E9-4843-B070-F1594CB0B0D1";
shapes = (
{
closed = 1;
nodes = (
(70,467,o),
(70,233,o),
(70,0,c),
(86,0,l),
(86,233,o),
(86,467,o),
(86,700,c),
(70,700,l)
);
}
);
width = 156;
}
);
unicode = 73;
},
{
glyphname = O;
lastChange = "2023-10-25 11:38:48 +0000";
layers = (
{
layerId = m01;
shapes = (
{
closed = 1;
nodes = (
(590,-8,o),
(698,121,o),
(698,354,cs),
(698,574,o),
(590,710,o),
(364,710,cs),
(138,710,o),
(30,574,o),
(30,351,cs),
(30,118,o),
(138,-8,o),
(364,-8,cs)
);
},
{
closed = 1;
nodes = (
(131,196,o),
(105,221,o),
(105,273,cs),
(105,325,o),
(126,350,o),
(364,350,c),
(602,350,o),
(631,325,o),
(631,273,cs),
(631,221,o),
(602,196,o),
(364,196,cs)
);
}
);
width = 728;
},
{
layerId = "60D037D9-62E9-4843-B070-F1594CB0B0D1";
shapes = (
{
closed = 1;
nodes = (
(540,-8,o),
(578,222,o),
(578,365,cs),
(578,509,o),
(540,713,o),
(313,713,cs),
(88,713,o),
(50,509,o),
(50,365,cs),
(50,212,o),
(88,-8,o),
(313,-8,cs)
);
},
{
closed = 1;
nodes = (
(113,11,o),
(61,212,o),
(61,365,cs),
(61,519,o),
(113,691,o),
(313,691,cs),
(515,691,o),
(567,519,o),
(567,365,cs),
(567,212,o),
(515,11,o),
(313,11,cs)
);
}
);
width = 628;
}
);
unicode = 79;
},
{
glyphname = a;
lastChange = "2023-10-23 15:54:39 +0000";
layers = (
{
layerId = m01;
shapes = (
{
closed = 1;
nodes = (
(458,502,l),
(462,269,o),
(462,233,o),
(458,0,c),
(538,0,l),
(534,233,o),
(534,269,o),
(538,502,c)
);
},
{
closed = 1;
nodes = (
(420,-8,o),
(513,90,o),
(513,258,cs),
(513,446,o),
(420,528,o),
(264,528,cs),
(108,528,o),
(14,446,o),
(14,258,cs),
(14,90,o),
(108,-8,o),
(264,-8,cs)
);
},
{
closed = 1;
nodes = (
(141,106,o),
(97,123,o),
(97,175,cs),
(97,227,o),
(141,244,o),
(255,244,cs),
(369,244,o),
(430,227,o),
(430,175,cs),
(430,123,o),
(369,106,o),
(255,106,cs)
);
}
);
width = 563;
},
{
layerId = "60D037D9-62E9-4843-B070-F1594CB0B0D1";
shapes = (
{
closed = 1;
nodes = (
(424,500,l),
(427,267,o),
(427,232,o),
(424,-1,c),
(441,-1,l),
(438,232,o),
(438,267,o),
(441,500,c)
);
},
{
closed = 1;
nodes = (
(408,-8,o),
(436,157,o),
(436,258,cs),
(436,359,o),
(406,509,o),
(233,509,cs),
(59,509,o),
(30,359,o),
(30,258,cs),
(30,150,o),
(59,-8,o),
(233,-8,cs)
);
},
{
closed = 1;
nodes = (
(78,11,o),
(40,150,o),
(40,258,cs),
(40,366,o),
(78,487,o),
(233,487,cs),
(388,487,o),
(426,366,o),
(426,258,cs),
(426,150,o),
(388,11,o),
(233,11,cs)
);
}
);
width = 501;
}
);
unicode = 97;
},
{
glyphname = b;
lastChange = "2023-10-23 16:02:47 +0000";
layers = (
{
layerId = m01;
shapes = (
{
closed = 1;
nodes = (
(39,467,o),
(39,233,o),
(35,0,c),
(115,0,l),
(111,233,o),
(111,467,o),
(115,700,c),
(35,700,l)
);
},
{
closed = 1;
nodes = (
(465,-8,o),
(559,90,o),
(559,258,cs),
(559,446,o),
(465,528,o),
(309,528,cs),
(153,528,o),
(60,446,o),
(60,258,cs),
(60,90,o),
(153,-8,o),
(309,-8,cs)
);
},
{
closed = 1;
nodes = (
(204,106,o),
(143,123,o),
(143,175,cs),
(143,227,o),
(204,244,o),
(318,244,cs),
(432,244,o),
(476,227,o),
(476,175,cs),
(476,123,o),
(432,106,o),
(318,106,cs)
);
}
);
width = 579;
},
{
layerId = "60D037D9-62E9-4843-B070-F1594CB0B0D1";
shapes = (
{
closed = 1;
nodes = (
(63,467,o),
(63,233,o),
(60,0,c),
(77,0,l),
(74,233,o),
(74,467,o),
(77,700,c),
(60,700,l)
);
},
{
closed = 1;
nodes = (
(442,-8,o),
(471,150,o),
(471,258,cs),
(471,359,o),
(442,509,o),
(268,509,cs),
(94,509,o),
(65,359,o),
(65,258,cs),
(65,157,o),
(93,-8,o),
(268,-8,cs)
);
},
{
closed = 1;
nodes = (
(113,11,o),
(75,150,o),
(75,258,cs),
(75,366,o),
(113,487,o),
(268,487,cs),
(423,487,o),
(461,366,o),
(461,258,cs),
(461,150,o),
(423,11,o),
(268,11,cs)
);
}
);
width = 511;
}
);
unicode = 98;
},
{
glyphname = c;
lastChange = "2023-10-23 16:15:20 +0000";
layers = (
{
layerId = m01;
shapes = (
{
closed = 1;
nodes = (
(603,182,l),
(603,432,o),
(610,508,o),
(342,508,cs),
(74,508,o),
(80,432,o),
(80,205,c),
(157,177,l),
(157,207,o),
(172,243,o),
(334,243,cs),
(519,243,o),
(518,216,o),
(526,182,c)
);
},
{
closed = 1;
nodes = (
(80,90,o),
(99,-9,o),
(316,-8,cs),
(586,-7,o),
(588,92,o),
(596,120,c),
(516,120,l),
(513,114,o),
(506,68,o),
(342,68,cs),
(150,68,o),
(157,130,o),
(157,177,c),
(80,205,l)
);
}
);
width = 678;
},
{
layerId = "60D037D9-62E9-4843-B070-F1594CB0B0D1";
shapes = (
{
closed = 1;
nodes = (
(571,311,l),
(568,480,o),
(506,506,o),
(345,508,c),
(137,508,o),
(90,492,o),
(90,258,c),
(105,258,l),
(105,473,o),
(141,493,o),
(353,493,c),
(485,493,o),
(554,471,o),
(551,311,c)
);
},
{
closed = 1;
nodes = (
(90,58,o),
(100,-8,o),
(333,-8,cs),
(523,-8,o),
(558,41,o),
(568,153,c),
(548,153,l),
(540,58,o),
(516,7,o),
(341,7,cs),
(106,7,o),
(105,68,o),
(105,258,c),
(90,258,l)
);
}
);
width = 651;
}
);
unicode = 99;
},
{
glyphname = d;
lastChange = "2023-10-23 16:03:15 +0000";
layers = (
{
layerId = m01;
shapes = (
{
closed = 1;
nodes = (
(464,700,l),
(468,467,o),
(468,233,o),
(464,0,c),
(544,0,l),
(540,233,o),
(540,467,o),
(544,700,c)
);
},
{
closed = 1;
nodes = (
(426,-8,o),
(519,90,o),
(519,258,cs),
(519,446,o),
(426,528,o),
(270,528,cs),
(114,528,o),
(20,446,o),
(20,258,cs),
(20,90,o),
(114,-8,o),
(270,-8,cs)
);
},
{
closed = 1;
nodes = (
(147,106,o),
(103,123,o),
(103,175,cs),
(103,227,o),
(147,244,o),
(261,244,cs),
(375,244,o),
(436,227,o),
(436,175,cs),
(436,123,o),
(375,106,o),
(261,106,cs)
);
}
);
width = 579;
},
{
layerId = "60D037D9-62E9-4843-B070-F1594CB0B0D1";
shapes = (
{
closed = 1;
nodes = (
(434,700,l),
(437,467,o),
(437,233,o),
(434,0,c),
(451,0,l),
(448,233,o),
(448,467,o),
(451,700,c)
);
},
{
closed = 1;
nodes = (
(418,-8,o),
(446,157,o),
(446,258,cs),
(446,359,o),
(417,509,o),
(243,509,cs),
(69,509,o),
(40,359,o),
(40,258,cs),
(40,150,o),
(69,-8,o),
(243,-8,cs)
);
},
{
closed = 1;
nodes = (
(88,11,o),
(50,150,o),
(50,258,cs),
(50,366,o),
(88,487,o),
(243,487,cs),
(398,487,o),
(436,366,o),
(436,258,cs),
(436,150,o),
(398,11,o),
(243,11,cs)
);
}
);
width = 511;
}
);
unicode = 100;
},
{
glyphname = e;
lastChange = "2023-10-23 16:15:20 +0000";
layers = (
{
layerId = m01;
shapes = (
{
closed = 1;
nodes = (
(376,189,o),
(187,188,o),
(136,193,cs),
(117,195,o),
(93,196,o),
(91,228,cs),
(90,237,o),
(90,253,o),
(90,262,cs),
(90,289,o),
(112,297,o),
(131,299,cs),
(182,304,o),
(379,304,o),
(423,299,cs),
(442,297,o),
(454,289,o),
(457,262,cs),
(458,253,o),
(458,245,o),
(457,236,cs),
(453,204,o),
(442,196,o),
(423,194,cs)
);
},
{
closed = 1;
nodes = (
(386,125,ls),
(483,125,o),
(512,182,o),
(524,250,cs),
(531,291,o),
(527,363,o),
(524,401,cs),
(519,466,o),
(483,516,o),
(386,516,cs),
(250,516,l),
(173,516,ls),
(81,516,o),
(34,474,o),
(23,414,cs),
(12,352,o),
(57,307,o),
(62,250,cs),
(68,182,o),
(94,125,o),
(191,125,cs)
);
},
{
closed = 1;
nodes = (
(21,134,l),
(93,134,l),
(88,327,l),
(89,415,l),
(20,395,l)
);
},
{
closed = 1;
nodes = (
(93,134,l),
(94,120,ls),
(97,72,o),
(159,58,o),
(252,58,cs),
(308,58,l),
(308,-18,l),
(200,-18,ls),
(53,-18,o),
(24,58,o),
(22,110,cs),
(21,134,l)
);
},
{
closed = 1;
nodes = (
(516,82,l),
(511,17,o),
(453,-18,o),
(354,-18,cs),
(224,-18,l),
(224,58,l),
(280,58,ls),
(367,58,o),
(439,51,o),
(439,111,cs),
(439,115,l),
(517,116,l)
);
}
);
width = 548;
},
{
layerId = "60D037D9-62E9-4843-B070-F1594CB0B0D1";
shapes = (
{
closed = 1;
nodes = (
(347,135,o),
(199,132,o),
(159,142,cs),
(122,151,o),
(86,180,o),
(78,232,cs),
(68,295,o),
(71,374,o),
(78,407,cs),
(90,464,o),
(126,486,o),
(159,490,cs),
(210,496,o),
(362,496,o),
(406,490,cs),
(436,486,o),
(481,463,o),
(489,407,cs),
(503,308,o),
(492,259,o),
(489,231,cs),
(484,185,o),
(441,146,o),
(406,142,cs)
);
},
{
closed = 1;
nodes = (
(369,122,ls),
(466,122,o),
(500,180,o),
(507,247,cs),
(510,276,o),
(517,302,o),
(507,394,cs),
(500,459,o),
(466,509,o),
(369,509,cs),
(263,509,l),
(196,509,ls),
(99,509,o),
(65,459,o),
(59,394,cs),
(50,302,o),
(57,287,o),
(59,247,cs),
(62,180,o),
(99,122,o),
(196,122,cs)
);
},
{
closed = 1;
nodes = (
(56,190,l),
(72,190,l),
(70,241,l),
(71,351,l),
(55,317,l)
);
},
{
closed = 1;
nodes = (
(72,190,l),
(74,146,ls),
(80,17,o),
(135,7,o),
(240,7,cs),
(316,7,l),
(316,-8,l),
(236,-8,ls),
(63,-8,o),
(68,57,o),
(58,138,c),
(56,190,l)
);
},
{
closed = 1;
nodes = (
(493,56,l),
(486,5,o),
(444,-6,o),
(352,-7,cs),
(237,-8,l),
(237,7,l),
(339,7,ls),
(405,7,o),
(465,12,o),
(474,58,cs),
(478,79,l),
(497,79,l)
);
}
);
width = 562;
}
);
unicode = 101;
},
{
glyphname = f;
lastChange = "2023-10-25 22:18:46 +0000";
layers = (
{
layerId = m01;
shapes = (
{
closed = 1;
nodes = (
(97,0,l),
(177,0,l),
(173,399,o),
(-49,480,o),
(347,435,c),
(366,433,o),
(504,410,o),
(504,375,c),
(571,375,l),
(571,636,o),
(502,700,o),
(332,700,cs),
(162,700,o),
(97,645,o),
(97,383,c)
);
},
{
closed = 1;
nodes = (
(542,232,l),
(542,312,l),
(20,308,l),
(20,232,l)
);
}
);
width = 591;
},
{
layerId = "60D037D9-62E9-4843-B070-F1594CB0B0D1";
shapes = (
{
closed = 1;
nodes = (
(105,0,l),
(126,0,l),
(129,588,o),
(153,679,o),
(207,679,cs),
(281,679,o),
(428,708,o),
(446,572,c),
(463,572,l),
(463,572,o),
(373,700,o),
(319,700,cs),
(196,700,o),
(104,763,o),
(104,578,cs)
);
},
{
closed = 1;
nodes = (
(439,482,l),
(439,500,l),
(35,500,l),
(35,482,l)
);
}
);
width = 453;
}
);
unicode = 102;
},
{
glyphname = g;
lastChange = "2023-10-27 00:00:23 +0000";
layers = (
{
layerId = m01;
shapes = (
{
closed = 1;
nodes = (
(420,-8,o),
(513,90,o),
(513,258,cs),
(513,446,o),
(420,528,o),
(264,528,cs),
(108,528,o),
(14,446,o),
(14,258,cs),
(14,90,o),
(108,-8,o),
(264,-8,cs)
);
},
{
closed = 1;
nodes = (
(381,-208,o),
(542,-210,o),
(538,0,c),
(458,0,l),
(454,-43,o),
(459,-129,o),
(288,-128,cs),
(136,-127,o),
(125,-81,o),
(125,-27,c),
(45,-24,l),
(39,-204,o),
(193,-210,o),
(264,-209,cs)
);
},
{
closed = 1;
nodes = (
(141,106,o),
(97,123,o),
(97,175,cs),
(97,227,o),
(141,244,o),
(255,244,cs),
(369,244,o),
(430,227,o),
(430,175,cs),
(430,123,o),
(369,106,o),
(255,106,cs)
);
},
{
closed = 1;
nodes = (
(538,0,l),
(534,233,o),
(534,269,o),
(538,502,c),
(458,502,l),
(462,269,o),
(462,233,o),
(458,0,c)
);
},
);
width = 558;
},
{
background = {
shapes = (
{
closed = 1;
nodes = (
(459,-8,o),
(487,157,o),
(487,258,cs),
(487,359,o),
(457,509,o),
(284,509,cs),
(110,509,o),
(81,359,o),
(81,258,cs),
(81,150,o),
(110,-8,o),
(284,-8,cs)
);
},
{
closed = 1;
nodes = (
(493,-136,o),
(494,-72,o),
(492,-1,c),
(475,-1,l),
(473,-62,o),
(478,-118,o),
(305,-118,cs),
(157,-118,o),
(120,-95,o),
(117,-25,c),
(100,-25,l),
(104,-136,o),
(191,-136,o),
(305,-136,cs)
);
},
{
closed = 1;
nodes = (
(129,11,o),
(91,150,o),
(91,258,cs),
(91,366,o),
(129,487,o),
(284,487,cs),
(439,487,o),
(477,366,o),
(477,258,cs),
(477,150,o),
(439,11,o),
(284,11,cs)
);
},
{
closed = 1;
nodes = (
(492,-1,l),
(489,232,o),
(489,267,o),
(492,500,c),
(475,500,l),
(478,267,o),
(478,232,o),
(475,-1,c)
);
}
);
};
layerId = "60D037D9-62E9-4843-B070-F1594CB0B0D1";
shapes = (
{
closed = 1;
nodes = (
(459,-8,o),
(487,157,o),
(487,258,cs),
(487,359,o),
(457,509,o),
(284,509,cs),
(110,509,o),
(81,359,o),
(81,258,cs),
(81,150,o),
(110,-8,o),
(284,-8,cs)
);
},
{
closed = 1;
nodes = (
(493,-136,o),
(494,-72,o),
(492,-1,c),
(475,-1,l),
(473,-62,o),
(478,-118,o),
(305,-118,cs),
(157,-118,o),
(120,-95,o),
(117,-25,c),
(100,-25,l),
(104,-136,o),
(191,-136,o),
(305,-136,cs)
);
},
{
closed = 1;
nodes = (
(129,11,o),
(91,150,o),
(91,258,cs),
(91,366,o),
(129,487,o),
(284,487,cs),
(439,487,o),
(477,366,o),
(477,258,cs),
(477,150,o),
(439,11,o),
(284,11,cs)
);
},
{
closed = 1;
nodes = (
(492,-1,l),
(489,232,o),
(489,267,o),
(492,500,c),
(475,500,l),
(478,267,o),
(478,232,o),
(475,-1,c)
);
}
);
width = 568;
}
);
unicode = 103;
},
{
glyphname = h;
lastChange = "2023-10-24 12:12:00 +0000";
layers = (
{
background = {
shapes = (
{
closed = 1;
nodes = (
(116,227,o),
(178,244,o),
(291,244,cs),
(405,244,o),
(449,227,o),
(449,176,c),
(531,176,l),
(533,283,o),
(536,369,o),
(500,424,cs),
(441,513,o),
(364,528,o),
(288,528,c),
(233,527,o),
(106,495,o),
(84,369,c),
(84,369,o),
(116,175,o),
(116,175,c)
);
},
{
closed = 1;
nodes = (
(531,0,l),
(531,176,l),
(449,176,l),
(445,0,l)
);
},
{
closed = 1;
nodes = (
(42,467,o),
(42,233,o),
(38,0,c),
(118,0,l),
(114,233,o),
(114,467,o),
(118,700,c),
(38,700,l)
);
}
);
};
layerId = m01;
shapes = (
{
closed = 1;
nodes = (
(116,228,o),
(178,244,o),
(291,244,cs),
(405,244,o),
(450,227,o),
(449,176,cs),
(445,0,l),
(531,0,l),
(531,176,ls),
(531,283,o),
(536,369,o),
(500,424,cs),
(441,513,o),
(364,528,o),
(288,528,cs),
(246,527,o),
(162,508,o),
(115,444,c),
(118,700,l),
(38,700,l),
(42,467,o),
(42,233,o),
(38,0,c),
(118,0,l),
(115,176,o),
(117,0,o),
(116,176,cs)
);
}
);
width = 572;
},
{
background = {
shapes = (
{
closed = 1;
nodes = (
(74,328,o),
(105,487,o),
(252,487,cs),
(339,487,o),
(427,434,o),
(428,305,c),
(438,305,l),
(438,376,o),
(420,410,o),
(411,426,cs),
(380,481,o),
(316,508,o),
(274,509,cs),
(138,512,o),
(82,407,o),
(75,311,cs),
(75,305,o),
(77,252,o),
(77,252,c)
);
},
{
closed = 1;
nodes = (
(440,0,l),
(438,305,l),
(428,305,l),
(423,0,l)
);
},
{
closed = 1;
nodes = (
(65,467,o),
(65,233,o),
(62,0,c),
(79,0,l),
(76,233,o),
(76,467,o),
(79,700,c),
(62,700,l)
);
}
);
};
layerId = "60D037D9-62E9-4843-B070-F1594CB0B0D1";
shapes = (
{
closed = 1;
nodes = (
(76,342,o),
(116,487,o),
(252,487,cs),
(339,487,o),
(430,434,o),
(428,305,cs),
(423,0,l),
(440,0,l),
(438,305,ls),
(438,376,o),
(420,410,o),
(411,426,cs),
(380,481,o),
(316,508,o),
(274,509,cs),
(146,512,o),
(89,419,o),
(77,328,c),
(79,700,l),
(62,700,l),
(65,467,o),
(65,233,o),
(62,0,c),
(79,0,l),
(78,85,o),
(78,169,o),
(77,252,cs)
);
}
);
width = 505;
}
);
unicode = 104;
},
{
glyphname = i;
lastChange = "2023-10-23 16:09:46 +0000";
layers = (
{
layerId = m01;
shapes = (
{
closed = 1;
nodes = (
(122,587,l),
(122,687,l),
(38,687,l),
(38,587,l)
);
},
{
closed = 1;
nodes = (
(40,502,l),
(44,269,o),
(44,233,o),
(40,0,c),
(120,0,l),
(116,233,o),
(116,269,o),
(120,502,c)
);
}
);
width = 157;
},
{
layerId = "60D037D9-62E9-4843-B070-F1594CB0B0D1";
shapes = (
{
closed = 1;
nodes = (
(82,587,l),
(82,687,l),
(62,687,l),
(62,587,l)
);
},
{
closed = 1;
nodes = (
(64,500,l),
(67,267,o),
(67,232,o),
(64,-1,c),
(81,-1,l),
(78,232,o),
(78,267,o),
(81,500,c)
);
}
);
width = 142;
}
);
unicode = 105;
},
{
glyphname = j;
lastChange = "2023-10-23 16:15:20 +0000";
layers = (
{
layerId = m01;
shapes = (
{
closed = 1;
nodes = (
(494,500,l),
(414,500,l),
(418,140,o),
(423,134,o),
(395,129,cs),
(345,120,o),
(165,123,o),
(121,128,cs),
(102,130,o),
(87,138,o),
(87,173,c),
(20,173,l),
(15,81,o),
(13,57,o),
(20,-35,cs),
(25,-100,o),
(61,-150,o),
(158,-150,cs),
(350,-150,ls),
(447,-150,o),
(482,-100,o),
(489,-35,cs),
(492,-6,o),
(494,1,o),
(494,48,c)
);
},
{
closed = 1;
nodes = (
(494,587,l),
(494,687,l),
(418,687,l),
(418,587,l)
);
}
);
width = 514;
},
{
layerId = "60D037D9-62E9-4843-B070-F1594CB0B0D1";
shapes = (
{
closed = 1;
nodes = (
(378,500,l),
(357,500,l),
(354,-38,o),
(394,-87,o),
(276,-130,cs),
(251,-139,o),
(151,-138,o),
(120,-131,cs),
(49,-115,o),
(43,-68,o),
(37,-23,c),
(20,-23,l),
(20,-23,o),
(20,-34,o),
(23,-49,cs),
(40,-132,o),
(105,-150,o),
(166,-150,cs),
(232,-150,ls),
(327,-150,o),
(368,-94,o),
(373,-31,cs),
(376,7,o),
(377,20,o),
(377,49,cs)
);
},
{
closed = 1;
nodes = (
(375,587,l),
(375,687,l),
(355,687,l),
(355,587,l)
);
}
);
width = 428;
}
);
unicode = 106;
},
{
glyphname = l;
lastChange = "2023-10-23 16:15:20 +0000";
layers = (
{
layerId = m01;
shapes = (
{
closed = 1;
nodes = (
(24,700,l),
(25,393,l),
(20,0,l),
(100,0,l),
(96,393,l),
(100,700,l)
);
}
);
width = 120;
},
{
layerId = "60D037D9-62E9-4843-B070-F1594CB0B0D1";
shapes = (
{
closed = 1;
nodes = (
(57,702,l),
(59,395,l),
(55,0,l),
(76,0,l),
(74,395,l),
(77,702,l)
);
}
);
width = 132;
}
);
unicode = 108;
},
{
glyphname = m;
lastChange = "2023-10-26 23:14:18 +0000";
layers = (
{
background = {
shapes = (
{
closed = 1;
nodes = (
(424,0,l),
(479,0,l),
(478,255,l),
(429,196,l)
);
},
{
closed = 1;
nodes = (
(20,0,l),
(100,0,l),
(95,193,l),
(96,500,l),
(20,500,l)
);
},
{
closed = 1;
nodes = (
(95,167,l),
(95,193,ls),
(95,220,o),
(110,228,o),
(129,230,cs),
(180,235,o),
(351,235,o),
(395,230,cs),
(414,228,o),
(429,220,o),
(429,193,c),
(471,116,l),
(481,208,o),
(481,301,o),
(471,393,cs),
(464,458,o),
(430,508,o),
(333,508,cs),
(332,508,l),
(230,508,ls),
(133,508,o),
(99,458,o),
(92,393,cs),
(82,301,o),
(82,208,o),
(92,116,c)
);
},
{
closed = 1;
nodes = (
(455,255,l),
(454,0,l),
(509,0,l),
(504,196,l)
);
},
{
closed = 1;
nodes = (
(837,500,l),
(838,193,l),
(833,0,l),
(913,0,l),
(913,500,l)
);
},
{
closed = 1;
nodes = (
(851,208,o),
(851,301,o),
(841,393,cs),
(834,458,o),
(800,508,o),
(703,508,cs),
(601,508,l),
(600,508,ls),
(503,508,o),
(469,458,o),
(462,393,cs),
(452,301,o),
(452,208,o),
(462,116,c),
(504,193,l),
(504,220,o),
(519,228,o),
(538,230,cs),
(582,235,o),
(753,235,o),
(804,230,cs),
(823,228,o),
(838,220,o),
(838,193,cs),
(838,167,l),
(841,116,l)
);
}
);
};
layerId = m01;
shapes = (
{
closed = 1;
nodes = (
(424,0,l),
(479,0,l),
(478,255,l),
(429,196,l)
);
},
{
closed = 1;
nodes = (
(20,0,l),
(100,0,l),
(95,193,l),
(96,500,l),
(20,500,l)
);
},
{
closed = 1;
nodes = (
(95,167,l),
(95,193,ls),
(95,220,o),
(110,228,o),
(129,230,cs),
(180,235,o),
(351,235,o),
(395,230,cs),
(414,228,o),
(429,220,o),
(429,193,c),
(471,116,l),
(481,208,o),
(481,301,o),
(471,393,cs),
(464,458,o),
(430,508,o),
(333,508,cs),
(332,508,l),
(230,508,ls),
(133,508,o),
(99,458,o),
(92,393,cs),
(82,301,o),
(82,208,o),
(92,116,c)
);
},
{
closed = 1;
nodes = (
(455,255,l),
(454,0,l),
(509,0,l),
(504,196,l)
);
},
{
closed = 1;
nodes = (
(837,500,l),
(838,193,l),
(833,0,l),
(913,0,l),
(913,500,l)
);
},
{
closed = 1;
nodes = (
(851,208,o),
(851,301,o),
(841,393,cs),
(834,458,o),
(800,508,o),
(703,508,cs),
(601,508,l),
(600,508,ls),
(503,508,o),
(469,458,o),
(462,393,cs),
(452,301,o),
(452,208,o),
(462,116,c),
(504,193,l),
(504,220,o),
(519,228,o),
(538,230,cs),
(582,235,o),
(753,235,o),
(804,230,cs),
(823,228,o),
(838,220,o),
(838,193,cs),
(838,167,l),
(841,116,l)
);
}
);
width = 943;
},
{
layerId = "60D037D9-62E9-4843-B070-F1594CB0B0D1";
shapes = (
{
closed = 1;
nodes = (
(429,0,l),
(449,0,l),
(448,255,l),
(434,196,l)
);
},
{
closed = 1;
nodes = (
(50,0,l),
(71,0,l),
(67,193,l),
(68,500,l),
(50,500,l)
);
},
{
closed = 1;
nodes = (
(62,147,l),
(66,187,l),
(72,337,o),
(51,474,o),
(161,490,cs),
(196,495,o),
(310,497,o),
(341,490,cs),
(418,472,o),
(434,426,o),
(434,196,c),
(441,116,l),
(451,208,o),
(451,301,o),
(441,393,cs),
(434,458,o),
(400,508,o),
(303,508,cs),
(302,508,l),
(196,508,ls),
(99,508,o),
(65,458,o),
(58,393,cs),
(48,301,o),
(48,208,o),
(58,116,c)
);
},
{
closed = 1;
nodes = (
(435,255,l),
(434,0,l),
(454,0,l),
(449,196,l)
);
},
{
closed = 1;
nodes = (
(815,500,l),
(816,193,l),
(812,0,l),
(833,0,l),
(833,500,l)
);
},
{
closed = 1;
nodes = (
(835,208,o),
(835,301,o),
(825,393,cs),
(818,458,o),
(784,508,o),
(687,508,cs),
(581,508,l),
(580,508,ls),
(483,508,o),
(449,458,o),
(442,393,cs),
(432,301,o),
(432,208,o),
(442,116,c),
(449,196,l),
(449,426,o),
(465,472,o),
(542,490,cs),
(573,497,o),
(687,495,o),
(722,490,cs),
(832,474,o),
(811,337,o),
(817,187,c),
(821,147,l),
(825,116,l)
);
}
);
width = 903;
}
);
unicode = 109;
},
{
glyphname = n;
lastChange = "2023-10-25 23:01:56 +0000";
layers = (
{
background = {
shapes = (
{
closed = 1;
nodes = (
(113,227,o),
(175,244,o),
(288,244,cs),
(402,244,o),
(446,227,o),
(446,176,c),
(528,176,l),
(530,283,o),
(533,369,o),
(497,424,cs),
(438,513,o),
(361,528,o),
(285,528,c),
(230,527,o),
(103,495,o),
(81,369,c),
(81,369,o),
(113,175,o),
(113,175,c)
);
},
{
closed = 1;
nodes = (
(528,0,l),
(528,176,l),
(446,176,l),
(442,0,l)
);
},
{
closed = 1;
nodes = (
(39,267,o),
(39,233,o),
(35,0,c),
(115,0,l),
(111,233,o),
(111,267,o),
(115,500,c),
(35,500,l)
);
}
);
};
layerId = m01;
shapes = (
{
closed = 1;
nodes = (
(112,227,o),
(175,244,o),
(288,244,cs),
(402,244,o),
(447,227,o),
(446,176,cs),
(442,0,l),
(528,0,l),
(528,176,ls),
(528,283,o),
(533,369,o),
(497,424,cs),
(438,513,o),
(361,528,o),
(285,528,cs),
(244,527,o),
(162,509,o),
(114,446,c),
(114,463,o),
(115,481,o),
(115,500,c),
(35,500,l),
(39,267,o),
(39,233,o),
(35,0,c),
(115,0,l),
(112,175,ls)
);
}
);
width = 569;
},
{
background = {
shapes = (
{
closed = 1;
nodes = (
(72,328,o),
(103,487,o),
(250,487,cs),
(337,487,o),
(425,434,o),
(426,305,c),
(436,305,l),
(436,376,o),
(418,410,o),
(409,426,cs),
(378,481,o),
(314,508,o),
(272,509,cs),
(136,512,o),
(80,407,o),
(73,311,cs),
(73,305,o),
(75,252,o),
(75,252,c)
);
},
{
closed = 1;
nodes = (
(438,0,l),
(436,305,l),
(426,305,l),
(421,0,l)
);
},
{
closed = 1;
nodes = (
(63,267,o),
(63,233,o),
(60,0,c),
(77,0,l),
(74,233,o),
(74,267,o),
(77,500,c),
(60,500,l)
);
}
);
};
layerId = "60D037D9-62E9-4843-B070-F1594CB0B0D1";
shapes = (
{
closed = 1;
nodes = (
(75,340,o),
(123,487,o),
(270,487,cs),
(357,487,o),
(428,434,o),
(426,305,cs),
(421,0,l),
(438,0,l),
(436,305,ls),
(436,376,o),
(418,410,o),
(409,426,cs),
(378,481,o),
(314,508,o),
(272,509,cs),
(145,512,o),
(88,421,o),
(75,330,c),
(75,376,o),
(76,429,o),
(77,500,c),
(60,500,l),
(63,267,o),
(63,233,o),
(60,0,c),
(77,0,l),
(75,252,l)
);
}
);
width = 503;
}
);
unicode = 110;
},
{
glyphname = o;
lastChange = "2023-10-25 22:12:14 +0000";
layers = (
{
layerId = m01;
shapes = (
{
closed = 1;
nodes = (
(475,-8,o),
(548,90,o),
(548,258,cs),
(548,446,o),
(454,528,o),
(284,528,cs),
(114,528,o),
(20,446,o),
(20,258,cs),
(20,90,o),
(114,-8,o),
(284,-8,cs)
);
},
{
closed = 1;
nodes = (
(147,106,o),
(103,123,o),
(103,175,cs),
(103,227,o),
(147,244,o),
(284,244,cs),
(416,244,o),
(465,227,o),
(465,175,cs),
(465,123,o),
(416,106,o),
(284,106,cs)
);
}
);
width = 568;
},
{
layerId = "60D037D9-62E9-4843-B070-F1594CB0B0D1";
shapes = (
{
closed = 1;
nodes = (
(417,-8,o),
(446,157,o),
(446,258,cs),
(446,359,o),
(417,509,o),
(243,509,cs),
(69,509,o),
(40,359,o),
(40,258,cs),
(40,150,o),
(69,-8,o),
(243,-8,cs)
);
},
{
closed = 1;
nodes = (
(88,11,o),
(51,150,o),
(51,258,cs),
(51,366,o),
(88,487,o),
(243,487,cs),
(398,487,o),
(436,366,o),
(436,258,cs),
(436,150,o),
(398,11,o),
(243,11,cs)
);
}
);
width = 486;
}
);
unicode = 111;
},
{
glyphname = p;
lastChange = "2023-10-23 23:39:28 +0000";
layers = (
{
layerId = m01;
shapes = (
{
closed = 1;
nodes = (
(42,267,o),
(42,33,o),
(38,-200,c),
(118,-200,l),
(114,33,o),
(114,267,o),
(118,500,c),
(38,500,l)
);
},
{
closed = 1;
nodes = (
(468,-8,o),
(562,90,o),
(562,258,cs),
(562,446,o),
(468,528,o),
(312,528,cs),
(156,528,o),
(63,446,o),
(63,258,cs),
(63,90,o),
(156,-8,o),
(312,-8,cs)
);
},
{
closed = 1;
nodes = (
(207,106,o),
(146,123,o),
(146,175,cs),
(146,227,o),
(207,244,o),
(321,244,cs),
(435,244,o),
(479,227,o),
(479,175,cs),
(479,123,o),
(435,106,o),
(321,106,cs)
);
}
);
width = 582;
},
{
layerId = "60D037D9-62E9-4843-B070-F1594CB0B0D1";
shapes = (
{
closed = 1;
nodes = (
(65,267,o),
(65,33,o),
(62,-200,c),
(79,-200,l),
(76,33,o),
(76,267,o),
(79,500,c),
(62,500,l)
);
},
{
closed = 1;
nodes = (
(444,-8,o),
(473,150,o),
(473,258,cs),
(473,359,o),
(444,509,o),
(270,509,cs),
(96,509,o),
(67,359,o),
(67,258,cs),
(67,157,o),
(95,-8,o),
(270,-8,cs)
);
},
{
closed = 1;
nodes = (
(115,11,o),
(77,150,o),
(77,258,cs),
(77,366,o),
(115,487,o),
(270,487,cs),
(425,487,o),
(463,366,o),
(463,258,cs),
(463,150,o),
(425,11,o),
(270,11,cs)
);
}
);
width = 513;
}
);
unicode = 112;
},
{
glyphname = q;
lastChange = "2023-10-23 23:40:02 +0000";
layers = (
{
layerId = m01;
shapes = (
{
closed = 1;
nodes = (
(464,500,l),
(468,267,o),
(468,33,o),
(464,-200,c),
(544,-200,l),
(540,33,o),
(540,267,o),
(544,500,c)
);
},
{
closed = 1;
nodes = (
(426,-8,o),
(519,90,o),
(519,258,cs),
(519,446,o),
(426,528,o),
(270,528,cs),
(114,528,o),
(20,446,o),
(20,258,cs),
(20,90,o),
(114,-8,o),
(270,-8,cs)
);
},
{
closed = 1;
nodes = (
(147,106,o),
(103,123,o),
(103,175,cs),
(103,227,o),
(147,244,o),
(261,244,cs),
(375,244,o),
(436,227,o),
(436,175,cs),
(436,123,o),
(375,106,o),
(261,106,cs)
);
}
);
width = 579;
},
{
layerId = "60D037D9-62E9-4843-B070-F1594CB0B0D1";
shapes = (
{
closed = 1;
nodes = (
(434,500,l),
(437,267,o),
(437,33,o),
(434,-200,c),
(451,-200,l),
(448,33,o),
(448,267,o),
(451,500,c)
);
},
{
closed = 1;
nodes = (
(418,-8,o),
(446,157,o),
(446,258,cs),
(446,359,o),
(417,509,o),
(243,509,cs),
(69,509,o),
(40,359,o),
(40,258,cs),
(40,150,o),
(69,-8,o),
(243,-8,cs)
);
},
{
closed = 1;
nodes = (
(88,11,o),
(50,150,o),
(50,258,cs),
(50,366,o),
(88,487,o),
(243,487,cs),
(398,487,o),
(436,366,o),
(436,258,cs),
(436,150,o),
(398,11,o),
(243,11,cs)
);
}
);
width = 511;
}
);
unicode = 113;
},
{
glyphname = r;
lastChange = "2023-10-26 23:28:23 +0000";
layers = (
{
background = {
shapes = (
{
closed = 1;
nodes = (
(25,0,l),
(105,0,l),
(100,193,l),
(101,500,l),
(25,500,l)
);
},
{
closed = 1;
nodes = (
(100,193,cs),
(100,220,o),
(115,228,o),
(134,230,cs),
(185,235,o),
(366,235,o),
(410,230,cs),
(429,228,o),
(444,220,o),
(444,185,c),
(511,185,l),
(519,334,o),
(548,508,o),
(373,508,cs),
(138,508,o),
(104,458,o),
(97,393,cs),
(87,301,o),
(87,208,o)
);
}
);
};
layerId = m01;
shapes = (
{
closed = 1;
nodes = (
(112,227,o),
(175,244,o),
(288,244,cs),
(402,244,o),
(447,227,o),
(446,176,cs),
(528,176,ls),
(528,283,o),
(533,369,o),
(497,424,cs),
(438,513,o),
(361,528,o),
(285,528,cs),
(244,527,o),
(162,509,o),
(114,446,c),
(114,463,o),
(115,481,o),
(115,500,c),
(35,500,l),
(39,267,o),
(39,233,o),
(35,0,c),
(115,0,l),
(112,175,ls)
);
}
);
width = 536;
},
{
layerId = "60D037D9-62E9-4843-B070-F1594CB0B0D1";
shapes = (
{
closed = 1;
nodes = (
(60,0,l),
(81,0,l),
(77,193,l),
(78,500,l),
(60,500,l)
);
},
{
closed = 1;
nodes = (
(76,187,c),
(82,337,o),
(61,474,o),
(171,490,cs),
(206,495,o),
(365,497,o),
(396,490,cs),
(473,472,o),
(486,419,o),
(486,251,c),
(504,251,l),
(504,347,o),
(499,373,o),
(497,388,cs),
(488,453,o),
(455,508,o),
(358,508,cs),
(247,508,l),
(206,508,ls),
(109,508,o),
(75,458,o),
(68,393,cs),
(58,301,o),
(58,208,o)
);
}
);
width = 554;
}
);
unicode = 114;
},
{
glyphname = s;
lastChange = "2023-10-25 23:08:24 +0000";
layers = (
{
layerId = m01;
shapes = (
{
closed = 1;
nodes = (
(121,111,o),
(107,111,o),
(107,111,cs),
(129,55,o),
(181,58,o),
(257,58,cs),
(313,58,l),
(313,-18,l),
(205,-18,ls),
(58,-18,o),
(39,58,o),
(30,95,cs),
(26,111,l)
);
},
{
closed = 1;
nodes = (
(522,199,o),
(92,157,o),
(92,236,cs),
(92,304,o),
(144,297,o),
(285,299,cs),
(394,301,o),
(456,291,o),
(460,256,c),
(530,256,l),
(558,509,o),
(428,516,o),
(273,516,c),
(111,516,o),
(27,468,o),
(28,331,cs),
(29,204,o),
(-13,125,o),
(308,125,cs),
(405,125,o),
(441,132,o),
(444,94,c),
(522,94,l)
);
},
{
closed = 1;
nodes = (
(229,58,l),
(285,58,ls),
(372,58,o),
(444,55,o),
(444,94,c),
(522,94,l),
(522,89,ls),
(522,-1,o),
(458,-22,o),
(359,-20,cs),
(229,-18,l)
);
}
);
width = 556;
},
{
layerId = "60D037D9-62E9-4843-B070-F1594CB0B0D1";
shapes = (
{
closed = 1;
nodes = (
(57,83,o),
(61,83,o),
(61,83,cs),
(71,5,o),
(81,8,o),
(242,7,c),
(278,4,l),
(254,-9,l),
(221,-8,ls),
(71,-3,o),
(55,-10,o),
(42,71,cs),
(40,83,l)
);
},
{
closed = 1;
nodes = (
(486,158,o),
(435,153,o),
(365,153,cs),
(322,153,o),
(177,151,o),
(128,155,cs),
(45,161,o),
(52,192,o),
(47,223,c),
(45,250,o),
(45,283,o),
(45,292,cs),
(44,429,o),
(57,479,o),
(149,491,cs),
(202,498,o),
(345,497,o),
(389,491,cs),
(497,476,o),
(475,360,o),
(471,278,c),
(490,278,l),
(492,296,o),
(492,356,o),
(489,394,cs),
(484,459,o),
(448,509,o),
(351,509,cs),
(188,509,ls),
(81,509,o),
(49,467,o),
(38,407,cs),
(27,345,o),
(30,325,o),
(30,268,cs),
(30,149,o),
(50,136,o),
(206,136,cs),
(268,136,ls),
(432,136,o),
(470,151,o),
(471,71,c),
(486,71,l)
);
},
{
closed = 1;
nodes = (
(189,7,l),
(292,7,ls),
(449,7,o),
(471,25,o),
(471,68,cs),
(471,71,l),
(486,71,l),
(486,67,ls),
(486,15,o),
(469,-16,o),
(254,-9,cs),
(189,-7,l)
);
}
);
width = 531;
}
);
unicode = 115;
},
{
glyphname = t;
lastChange = "2023-10-26 23:40:33 +0000";
layers = (
{
layerId = m01;
shapes = (
{
closed = 1;
nodes = (
(92,56,o),
(156,-9,o),
(321,-10,cs),
(428,-11,o),
(563,-4,o),
(563,342,c),
(482,343,l),
(482,290,o),
(461,274,o),
(324,274,cs),
(158,274,o),
(167,299,o),
(172,650,c),
(92,650,l)
);
},
{
closed = 1;
nodes = (
(15,424,l),
(342,425,l),
(537,420,l),
(537,500,l),
(15,500,l)
);
},
{
closed = 1;
nodes = (
(560,342,l),
(482,342,l)
);
}
);
width = 596;
},
{
layerId = "60D037D9-62E9-4843-B070-F1594CB0B0D1";
shapes = (
{
closed = 1;
nodes = (
(91,170,o),
(92,157,o),
(95,119,cs),
(100,56,o),
(141,0,o),
(236,0,cs),
(302,0,ls),
(363,0,o),
(428,18,o),
(445,101,cs),
(448,116,o),
(448,127,o),
(448,127,c),
(431,127,l),
(425,82,o),
(419,35,o),
(348,19,cs),
(317,12,o),
(217,11,o),
(192,20,cs),
(74,63,o),
(114,112,o),
(111,650,c),
(90,650,l),
(91,199,ls)
);
},
{
closed = 1;
nodes = (
(20,481,l),
(251,482,l),
(424,481,l),
(424,499,l),
(20,499,l)
);
}
);
width = 488;
}
);
unicode = 116;
},
{
glyphname = u;
lastChange = "2023-10-26 23:26:16 +0000";
layers = (
{
background = {
shapes = (
{
closed = 1;
nodes = (
(538,245,l),
(539,500,l),
(459,500,l),
(464,304,l)
);
},
{
closed = 1;
nodes = (
(96,260,l),
(95,315,l),
(100,500,l),
(20,500,l),
(21,260,l)
);
},
{
closed = 1;
nodes = (
(18,300,o),
(18,207,o),
(28,115,cs),
(35,50,o),
(70,0,o),
(167,0,cs),
(275,0,l),
(393,0,ls),
(490,0,o),
(524,50,o),
(531,115,cs),
(541,207,o),
(541,300,o),
(531,392,c),
(464,315,l),
(464,288,o),
(449,280,o),
(430,278,cs),
(386,273,o),
(180,273,o),
(129,278,cs),
(110,280,o),
(95,288,o),
(95,315,cs),
(95,341,l),
(28,392,l)
);
}
);
};
layerId = m01;
shapes = (
{
closed = 1;
nodes = (
(441,273,o),
(386,256,o),
(273,256,cs),
(159,256,o),
(105,273,o),
(106,324,cs),
(110,500,l),
(30,500,l),
(30,214,o),
(31,166,o),
(65,104,cs),
(115,14,o),
(188,-9,o),
(273,-9,cs),
(358,-9,o),
(445,19,o),
(485,104,cs),
(514,166,o),
(517,214,o),
(517,500,c),
(437,500,l),
(440,324,ls)
);
}
);
width = 559;
},
{
layerId = "60D037D9-62E9-4843-B070-F1594CB0B0D1";
shapes = (
{
closed = 1;
nodes = (
(519,245,l),
(520,500,l),
(500,500,l),
(504,304,l)
);
},
{
closed = 1;
nodes = (
(68,252,l),
(68,315,l),
(72,500,l),
(51,500,l),
(51,252,l)
);
},
{
closed = 1;
nodes = (
(48,300,o),
(48,207,o),
(58,115,cs),
(65,50,o),
(100,0,o),
(197,0,cs),
(284,0,l),
(374,0,ls),
(471,0,o),
(505,50,o),
(512,115,cs),
(522,207,o),
(522,300,o),
(512,392,c),
(504,312,l),
(504,82,o),
(489,36,o),
(412,18,cs),
(381,11,o),
(197,13,o),
(162,18,cs),
(52,34,o),
(73,163,o),
(67,313,c),
(63,361,l),
(58,392,l)
);
}
);
width = 570;
}
);
unicode = 117;
},
{
glyphname = v;
lastChange = "2023-10-23 16:15:20 +0000";
layers = (
{
layerId = m01;
shapes = (
{
closed = 1;
nodes = (
(482,245,l),
(539,500,l),
(459,500,l),
(414,304,l)
);
},
{
closed = 1;
nodes = (
(146,260,l),
(145,315,l),
(100,500,l),
(20,500,l),
(77,260,l)
);
},
{
closed = 1;
nodes = (
(100,150,o),
(87,210,o),
(110,109,cs),
(137,-8,o),
(152,0,o),
(217,0,cs),
(275,0,l),
(343,0,ls),
(404,0,o),
(422,-8,o),
(450,108,cs),
(475,210,o),
(459,143,o),
(482,245,c),
(417,315,l),
(411,288,o),
(399,280,o),
(380,278,cs),
(356,275,o),
(313,274,o),
(271,274,cs),
(236,275,o),
(202,276,o),
(179,278,cs),
(160,280,o),
(152,289,o),
(145,315,cs),
(137,343,l),
(77,260,l)
);
}
);
width = 544;
},
{
layerId = "60D037D9-62E9-4843-B070-F1594CB0B0D1";
shapes = (
{
closed = 1;
nodes = (
(445,274,l),
(504,500,l),
(483,500,l),
(437,312,l)
);
},
{
closed = 1;
nodes = (
(108,259,l),
(101,313,l),
(56,500,l),
(35,500,l),
(92,274,l)
);
},
{
closed = 1;
nodes = (
(82,300,o),
(133,110,o),
(158,23,cs),
(166,-3,o),
(181,0,o),
(231,0,cs),
(268,0,l),
(308,0,ls),
(362,0,o),
(371,-4,o),
(378,21,cs),
(403,110,o),
(455,301,o),
(470,392,c),
(437,312,l),
(401,179,o),
(378,77,o),
(365,38,cs),
(356,11,o),
(352,17,o),
(267,17,cs),
(187,17,o),
(182,11,o),
(172,38,cs),
(160,70,o),
(135,179,o),
(101,312,c),
(83,361,l),
(67,392,l)
);
}
);
width = 539;
}
);
unicode = 118;
},
{
glyphname = w;
lastChange = "2023-10-23 16:15:20 +0000";
layers = (
{
layerId = m01;
shapes = (
{
closed = 1;
nodes = (
(455,245,l),
(509,500,l),
(429,500,l),
(396,304,l)
);
},
{
closed = 1;
nodes = (
(135,260,l),
(134,315,l),
(95,500,l),
(15,500,l),
(72,260,l)
);
},
{
closed = 1;
nodes = (
(95,150,o),
(83,210,o),
(106,109,cs),
(133,-8,o),
(151,0,o),
(205,0,cs),
(290,0,l),
(331,0,ls),
(387,0,o),
(402,-8,o),
(427,108,cs),
(449,210,o),
(433,143,o),
(455,245,c),
(399,315,l),
(392,288,o),
(383,280,o),
(363,278,cs),
(334,275,o),
(341,276,o),
(298,276,c),
(204,275,o),
(191,276,o),
(168,278,cs),
(149,280,o),
(141,289,o),
(134,315,cs),
(126,343,l),
(72,260,l)
);
},
{
closed = 1;
nodes = (
(510,500,l),
(430,500,l),
(484,245,l),
(543,304,l)
);
},
{
closed = 1;
nodes = (
(949,500,l),
(869,500,l),
(830,315,l),
(829,260,l),
(892,260,l)
);
},
{
closed = 1;
nodes = (
(838,343,l),
(830,315,ls),
(823,289,o),
(815,280,o),
(796,278,cs),
(773,276,o),
(766,275,o),
(647,276,c),
(598,276,o),
(605,275,o),
(576,278,cs),
(556,280,o),
(547,288,o),
(540,315,c),
(484,245,l),
(506,143,o),
(490,210,o),
(512,108,cs),
(537,-8,o),
(552,0,o),
(608,0,cs),
(649,0,l),
(759,0,ls),
(813,0,o),
(831,-8,o),
(858,109,cs),
(881,210,o),
(869,150,o),
(892,260,c)
);
}
);
width = 949;
},
{
layerId = "60D037D9-62E9-4843-B070-F1594CB0B0D1";
shapes = (
{
closed = 1;
nodes = (
(366,274,l),
(414,500,l),
(393,500,l),
(358,312,l)
);
},
{
closed = 1;
nodes = (
(68,259,l),
(61,313,l),
(16,500,l),
(-5,500,l),
(52,274,l)
);
},
{
closed = 1;
nodes = (
(42,300,o),
(89,117,o),
(116,30,cs),
(124,4,o),
(142,0,o),
(185,0,cs),
(202,0,l),
(248,0,ls),
(281,0,o),
(309,4,o),
(316,30,cs),
(340,119,o),
(371,299,o),
(391,392,c),
(358,312,l),
(333,179,o),
(311,83,o),
(300,38,cs),
(294,13,o),
(262,16,o),
(209,16,cs),
(161,16,o),
(138,16,o),
(132,38,cs),
(119,83,o),
(95,179,o),
(61,312,c),
(43,361,l),
(27,392,l)
);
},
{
closed = 1;
nodes = (
(414,500,l),
(393,500,l),
(441,274,l),
(449,312,l)
);
},
{
closed = 1;
nodes = (
(812,500,l),
(791,500,l),
(746,313,l),
(739,259,l),
(755,274,l)
);
},
{
closed = 1;
nodes = (
(764,361,l),
(746,312,l),
(712,179,o),
(687,83,o),
(675,38,cs),
(668,12,o),
(637,17,o),
(590,17,cs),
(540,17,o),
(513,15,o),
(507,38,cs),
(497,78,o),
(474,179,o),
(449,312,c),
(416,392,l),
(436,299,o),
(469,119,o),
(491,30,cs),
(498,2,o),
(526,0,o),
(559,0,cs),
(605,0,l),
(622,0,ls),
(665,0,o),
(683,4,o),
(691,30,cs),
(716,117,o),
(765,300,o),
(780,392,c)
);
}
);
width = 812;
}
);
unicode = 119;
},
{
glyphname = y;
lastChange = "2023-10-23 16:15:20 +0000";
layers = (
{
layerId = m01;
shapes = (
{
closed = 1;
nodes = (
(464,8,l)
);
},
{
closed = 1;
nodes = (
(541,-41,ls),
(536,-116,o),
(497,-198,o),
(350,-198,cs),
(243,-198,l),
(243,-124,l),
(298,-124,ls),
(391,-124,o),
(461,-116,o),
(463,-30,cs),
(464,8,l),
(544,8,l)
);
},
{
closed = 1;
nodes = (
(112,-36,l),
(112,-46,ls),
(112,-132,o),
(184,-124,o),
(271,-124,cs),
(326,-124,l),
(326,-198,l),
(184,-200,ls),
(85,-201,o),
(36,-136,o),
(35,-71,c),
(34,-36,l)
);
},
{
closed = 1;
nodes = (
(105,508,l),
(25,508,l),
(26,253,l),
(100,312,l)
);
},
{
closed = 1;
nodes = (
(544,508,l),
(464,508,l),
(469,315,l),
(464,8,l),
(544,8,l)
);
},
{
closed = 1;
nodes = (
(469,341,l),
(469,315,ls),
(469,288,o),
(454,280,o),
(435,278,cs),
(384,273,o),
(178,273,o),
(134,278,cs),
(115,280,o),
(100,288,o),
(100,315,c),
(33,392,l),
(23,300,o),
(23,207,o),
(33,115,cs),
(40,50,o),
(74,0,o),
(171,0,cs),
(307,0,l),
(334,0,ls),
(431,0,o),
(465,50,o),
(472,115,cs),
(482,207,o),
(482,300,o),
(472,392,c)
);
}
);
width = 569;
},
{
layerId = "60D037D9-62E9-4843-B070-F1594CB0B0D1";
shapes = (
{
closed = 1;
nodes = (
(497,0,l)
);
},
{
closed = 1;
nodes = (
(518,-41,l),
(518,-112,o),
(480,-198,o),
(333,-198,cs),
(273,-198,l),
(273,-183,l),
(304,-183,ls),
(397,-183,o),
(495,-168,o),
(498,-36,cs),
(499,8,l),
(519,8,l)
);
},
{
closed = 1;
nodes = (
(85,-36,l),
(85,-65,ls),
(85,-150,o),
(145,-183,o),
(220,-183,cs),
(332,-183,l),
(332,-198,l),
(214,-200,ls),
(115,-202,o),
(66,-136,o),
(65,-71,c),
(64,-36,l)
);
},
{
closed = 1;
nodes = (
(70,508,l),
(50,508,l),
(51,253,l),
(65,312,l)
);
},
{
closed = 1;
nodes = (
(519,508,l),
(498,508,l),
(502,315,l),
(499,8,l),
(519,8,l)
);
},
{
closed = 1;
nodes = (
(507,361,l),
(503,321,l),
(497,171,o),
(518,34,o),
(408,18,cs),
(373,13,o),
(189,11,o),
(158,18,cs),
(81,36,o),
(65,82,o),
(65,312,c),
(58,392,l),
(48,300,o),
(48,207,o),
(58,115,cs),
(65,50,o),
(99,0,o),
(196,0,cs),
(307,0,l),
(373,0,ls),
(470,0,o),
(504,50,o),
(511,115,cs),
(521,207,o),
(521,300,o),
(511,392,c)
);
}
);
width = 574;
}
);
unicode = 121;
},
